<svg viewBox="0 0 240 240" xmlns="http://www.w3.org/2000/svg">
  <defs>
    <linearGradient id="lactoBase" x1="0%" y1="0%" x2="100%" y2="100%">
      <stop offset="0%" stop-color="#84d182"/>
      <stop offset="100%" stop-color="#469e44"/>
    </linearGradient>
    <linearGradient id="lactoLight" x1="0%" y1="0%" x2="100%" y2="100%">
      <stop offset="0%" stop-color="#a3e3a1"/>
      <stop offset="100%" stop-color="#5db85a"/>
    </linearGradient>
    <filter id="glowGreen" x="-20%" y="-20%" width="140%" height="140%">
      <feGaussianBlur stdDeviation="6" result="blur"/>
      <feComposite in="SourceGraphic" in2="blur" operator="over"/>
    </filter>
  </defs>
  
  <circle cx="120" cy="120" r="80" fill="#5db85a" opacity="0.05" filter="url(#glowGreen)"/>
  
  <g transform="translate(100, 40) rotate(-15)">
    <rect x="-18" y="0" width="36" height="85" rx="18" fill="url(#lactoBase)"/>
    <path d="M -12 10 Q -12 5 0 5 Q 12 5 12 10 L 12 75 Q 12 80 0 80 Q -12 80 -12 75 Z" fill="#ffffff" opacity="0.15"/>
    
    <g transform="translate(0, 92)">
      <rect x="-18" y="0" width="36" height="80" rx="18" fill="url(#lactoBase)"/>
      <path d="M -12 10 Q -12 5 0 5 Q 12 5 12 10 L 12 70 Q 12 75 0 75 Q -12 75 -12 70 Z" fill="#ffffff" opacity="0.15"/>
    </g>
    
    <g transform="translate(0, 178)">
      <rect x="-18" y="0" width="36" height="75" rx="18" fill="url(#lactoBase)"/>
      <path d="M -12 10 Q -12 5 0 5 Q 12 5 12 10 L 12 65 Q 12 70 0 70 Q -12 70 -12 65 Z" fill="#ffffff" opacity="0.15"/>
    </g>
  </g>
  
  <g transform="translate(150, 110) rotate(20) scale(0.85)">
    <rect x="-18" y="0" width="36" height="70" rx="18" fill="url(#lactoLight)"/>
    <rect x="-18" y="75" width="36" height="60" rx="18" fill="url(#lactoLight)"/>
  </g>
</svg>