<svg viewBox="0 0 240 240" xmlns="http://www.w3.org/2000/svg">
  <defs>
    <!-- Envelope gradients -->
    <linearGradient id="envBack" x1="0%" y1="0%" x2="100%" y2="100%">
      <stop offset="0%" stop-color="#e8e3d5"/>
      <stop offset="100%" stop-color="#dcd5c4"/>
    </linearGradient>
    <linearGradient id="envTopFlap" x1="50%" y1="0%" x2="50%" y2="100%">
      <stop offset="0%" stop-color="#ffffff"/>
      <stop offset="100%" stop-color="#faf8f5"/>
    </linearGradient>
    <linearGradient id="envBottomFlap" x1="50%" y1="100%" x2="50%" y2="0%">
      <stop offset="0%" stop-color="#f0ece1"/>
      <stop offset="100%" stop-color="#e6dec3"/>
    </linearGradient>
    <linearGradient id="envSideLeft" x1="0%" y1="50%" x2="100%" y2="50%">
      <stop offset="0%" stop-color="#faf8f5"/>
      <stop offset="100%" stop-color="#f0ece1"/>
    </linearGradient>
    <linearGradient id="envSideRight" x1="100%" y1="50%" x2="0%" y2="50%">
      <stop offset="0%" stop-color="#faf8f5"/>
      <stop offset="100%" stop-color="#f0ece1"/>
    </linearGradient>
    
    <!-- Wax seal gradients -->
    <radialGradient id="waxMain" cx="35%" cy="30%" r="70%">
      <stop offset="0%" stop-color="#fbbf24"/>
      <stop offset="50%" stop-color="#d97706"/>
      <stop offset="100%" stop-color="#965f00"/>
    </radialGradient>
    <radialGradient id="waxIndent" cx="50%" cy="50%" r="50%">
      <stop offset="0%" stop-color="#965f00" stop-opacity="0.6"/>
      <stop offset="80%" stop-color="#d97706" stop-opacity="0.1"/>
      <stop offset="100%" stop-color="#fbbf24" stop-opacity="0"/>
    </radialGradient>
    
    <!-- Filters -->
    <filter id="glowAmber" x="-20%" y="-20%" width="140%" height="140%">
      <feGaussianBlur stdDeviation="8" result="blur"/>
      <feComposite in="SourceGraphic" in2="blur" operator="over"/>
    </filter>
    <filter id="flapShadow" x="-10%" y="-10%" width="120%" height="120%">
      <feDropShadow dx="0" dy="2" stdDeviation="3" flood-color="#4a3f35" flood-opacity="0.08"/>
    </filter>
    <filter id="waxShadow" x="-20%" y="-20%" width="140%" height="140%">
      <feDropShadow dx="0" dy="3" stdDeviation="2" flood-color="#965f00" flood-opacity="0.3"/>
    </filter>
  </defs>
  
  <!-- Background glow -->
  <circle cx="120" cy="120" r="80" fill="#d97706" opacity="0.06" filter="url(#glowAmber)"/>
  
  <!-- Envelope group -->
  <g transform="rotate(-2 120 120)">
    <!-- Back shadow -->
    <rect x="32" y="74" width="176" height="106" rx="6" fill="#4a3f35" opacity="0.06" filter="blur(6px)"/>
    
    <!-- Envelope back -->
    <rect x="30" y="70" width="180" height="110" rx="4" fill="url(#envBack)"/>
    
    <!-- Side flaps -->
    <path d="M 30 70 L 105 125 L 30 180 Z" fill="url(#envSideLeft)"/>
    <path d="M 210 70 L 135 125 L 210 180 Z" fill="url(#envSideRight)"/>
    
    <!-- Bottom flap -->
    <path d="M 30 180 L 115 118 Q 120 115 125 118 L 210 180 Z" fill="url(#envBottomFlap)" filter="url(#flapShadow)"/>
    <path d="M 32 178 L 115 118 Q 120 115 125 118 L 208 178" fill="none" stroke="#ffffff" stroke-width="1.5" stroke-linecap="round" opacity="0.5"/>
    
    <!-- Top flap -->
    <path d="M 30 70 L 115 132 Q 120 136 125 132 L 210 70 Z" fill="url(#envTopFlap)" filter="url(#flapShadow)"/>
    <path d="M 32 72 L 115 132 Q 120 136 125 132 L 208 72" fill="none" stroke="#ffffff" stroke-width="1.5" stroke-linecap="round" opacity="0.8"/>
    
    <!-- Wax seal -->
    <g transform="translate(120, 134)" filter="url(#waxShadow)">
      <!-- Wax droplets -->
      <circle cx="-12" cy="8" r="4.5" fill="url(#waxMain)"/>
      <circle cx="14" cy="-4" r="3.5" fill="url(#waxMain)"/>
      <circle cx="6" cy="12" r="5" fill="url(#waxMain)"/>
      
      <!-- Main seal -->
      <circle cx="0" cy="0" r="16" fill="url(#waxMain)"/>
      <circle cx="0" cy="0" r="11" fill="url(#waxIndent)"/>
      
      <!-- Seal pattern (rice motif) -->
      <g fill="#faf8f5" opacity="0.85">
        <circle cx="0" cy="-3" r="2.5"/>
        <circle cx="-4" cy="2" r="2"/>
        <circle cx="4" cy="2" r="2"/>
        <path d="M 0 -1 L -3 1 M 0 -1 L 3 1 M 0 -3 L 0 5" stroke="#faf8f5" stroke-width="1.2" stroke-linecap="round"/>
      </g>
      
      <!-- Highlight -->
      <path d="M -8 -8 A 12 12 0 0 1 8 -8" fill="none" stroke="#ffffff" stroke-width="1.5" stroke-linecap="round" opacity="0.3" filter="blur(0.5px)"/>
    </g>
  </g>
  
  <!-- Decorative particles -->
  <circle cx="45" cy="55" r="3" fill="#fbbf24" opacity="0.6"/>
  <circle cx="195" cy="85" r="5" fill="#f0ece1" opacity="0.8"/>
  <circle cx="175" cy="185" r="2.5" fill="#d97706" opacity="0.5"/>
  <circle cx="55" cy="170" r="4" fill="#fbbf24" opacity="0.4"/>
  <circle cx="140" cy="40" r="1.5" fill="#8b7355" opacity="0.3"/>
</svg>